<?xml version="1.0" standalone="no"?>
<!DOCTYPE svg PUBLIC "-//W3C//DTD SVG 20010904//EN"
 "http://www.w3.org/TR/2001/REC-SVG-20010904/DTD/svg10.dtd">
<svg version="1.0" xmlns="http://www.w3.org/2000/svg"
 width="2400.000000pt" height="1600.000000pt" viewBox="0 0 2400.000000 1600.000000"
 preserveAspectRatio="xMidYMid meet">
<metadata>
Created by potrace 1.16, written by Peter Selinger 2001-2019
</metadata>
<g transform="translate(0.000000,1600.000000) scale(0.100000,-0.100000)"
fill="#000000" stroke="none">
<path d="M0 8000 l0 -8000 12000 0 12000 0 0 8000 0 8000 -12000 0 -12000 0 0
-8000z m15260 934 c0 -21 4 -25 18 -19 9 4 32 9 50 12 18 3 32 12 32 19 0 27
15 13 27 -23 9 -31 9 -41 -3 -54 -24 -27 -17 -41 16 -34 17 4 30 4 30 0 0 -13
-82 -85 -116 -101 -19 -9 -34 -20 -34 -25 0 -5 -7 -9 -15 -9 -8 0 -38 -18 -66
-39 -29 -22 -63 -45 -77 -53 -14 -7 -38 -24 -54 -38 -15 -14 -42 -27 -60 -28
-18 -2 -39 -9 -48 -17 -24 -22 -46 -18 -68 10 -11 14 -24 25 -29 25 -5 0 -15
11 -23 24 -7 13 -21 27 -32 29 -15 4 -18 2 -12 -15 6 -20 4 -20 -37 -14 -43 6
-74 30 -63 47 3 5 -17 9 -45 9 -27 0 -52 4 -56 10 -4 6 -15 6 -32 -1 -18 -7
-30 -6 -37 1 -13 13 -59 13 -73 -1 -8 -8 -27 -8 -70 0 -32 7 -67 12 -77 12
-11 0 -25 7 -31 16 -9 11 -14 13 -19 5 -10 -17 -24 -15 -28 4 -3 14 -6 14 -28
-5 -21 -17 -22 -20 -7 -21 10 0 15 -5 12 -11 -4 -5 -17 -9 -28 -8 -45 3 -53
-1 -34 -15 14 -11 15 -15 3 -19 -18 -7 -26 1 -26 25 0 17 -2 16 -21 -3 -17
-17 -28 -20 -58 -14 -85 16 -101 16 -107 0 -3 -8 -10 -13 -14 -10 -4 3 -10 -2
-14 -10 -3 -8 -12 -15 -20 -15 -10 0 -13 6 -10 15 8 19 -10 19 -29 1 -8 -9
-34 -14 -63 -14 -72 0 -72 0 -79 -22 -4 -13 -18 -21 -43 -25 -20 -3 -46 -8
-57 -10 -32 -7 -143 -83 -162 -111 -9 -14 -36 -35 -60 -46 -40 -19 -57 -38
-33 -38 6 0 10 5 10 10 0 6 5 10 11 10 8 0 8 -5 -1 -15 -7 -8 -21 -15 -32 -15
-10 0 -17 -4 -13 -10 3 -5 -22 -37 -55 -70 -34 -34 -59 -64 -56 -67 3 -3 -5
-14 -17 -24 -12 -10 -18 -18 -13 -19 11 0 -46 -50 -58 -50 -4 0 -24 -13 -43
-30 -18 -16 -37 -30 -42 -30 -4 0 -22 -20 -39 -44 -38 -53 -107 -126 -119
-126 -11 0 -63 -66 -63 -79 0 -6 -4 -11 -10 -11 -5 0 -10 -16 -10 -36 0 -19
-7 -42 -15 -50 -8 -9 -15 -24 -15 -35 0 -11 -6 -22 -14 -25 -8 -3 -15 -19 -15
-37 0 -31 -7 -87 -12 -97 -1 -3 -3 -25 -5 -50 -1 -25 -5 -67 -8 -95 -3 -27 -8
-89 -10 -137 -3 -48 -15 -123 -27 -168 -46 -171 10 -251 163 -235 123 14 143
12 146 -11 2 -14 -8 -30 -33 -48 -29 -22 -34 -31 -24 -42 9 -11 8 -14 -7 -15
-11 -1 -32 -3 -49 -4 -16 -1 -104 4 -195 12 -132 10 -167 16 -177 30 -9 11
-30 17 -70 19 -88 4 -190 16 -175 21 25 9 11 21 -35 28 -27 4 -42 10 -35 12 7
3 57 -3 110 -13 53 -10 103 -17 110 -15 8 1 20 -3 28 -10 8 -6 17 -9 21 -6 3
4 25 80 48 170 30 117 44 194 48 273 18 283 28 386 48 471 11 51 25 95 30 98
5 4 9 15 9 26 0 11 10 30 23 42 13 12 26 29 30 37 3 8 27 41 54 73 82 100 123
150 164 205 22 29 44 50 50 47 5 -4 8 -3 7 2 -4 15 22 53 37 53 18 0 85 58 85
74 0 6 -10 0 -21 -14 l-21 -25 14 25 c9 14 23 25 33 25 10 0 20 6 23 14 3 9 0
11 -8 6 -9 -5 -11 -4 -6 4 4 6 11 9 16 6 5 -3 11 3 14 13 7 21 111 122 126
122 9 0 14 14 11 32 0 4 5 5 13 2 15 -6 113 92 108 107 -1 5 6 9 15 9 13 0 14
3 6 8 -16 10 -5 52 14 52 8 0 12 3 10 8 -3 4 1 13 9 19 8 9 15 9 19 2 5 -7 11
-6 21 2 19 15 18 33 -1 25 -12 -4 -13 -2 -6 13 6 10 8 21 5 23 -2 3 2 10 10
17 11 9 15 8 19 -3 4 -9 2 -18 -3 -21 -15 -9 -12 -25 3 -25 8 0 19 11 25 24 8
19 18 23 53 23 38 0 41 -1 24 -13 -10 -8 -16 -17 -12 -20 4 -4 13 -1 21 5 8 7
21 9 27 5 7 -4 10 -3 7 2 -3 5 1 16 10 24 14 13 15 12 9 -3 -6 -15 -3 -17 16
-12 12 3 18 3 12 -2 -5 -4 -11 -15 -13 -23 -2 -8 -11 -23 -19 -32 -32 -36 4
-16 67 36 35 30 68 52 73 49 5 -3 1 -14 -9 -24 -20 -22 -6 -25 22 -4 22 16 58
20 49 5 -14 -23 36 -7 63 20 38 38 65 40 29 2 -37 -38 -34 -45 8 -21 19 11 39
18 44 14 6 -3 21 1 33 9 13 8 39 17 58 21 19 4 41 12 48 18 10 8 19 7 34 -2
23 -14 40 -5 18 10 -11 8 1 9 42 6 43 -4 58 -2 62 9 3 8 15 14 27 14 13 0 37
5 55 12 25 9 39 9 56 0 13 -6 34 -11 48 -11 14 0 37 -3 53 -6 21 -6 27 -4 27
9 0 9 8 16 20 16 16 0 19 -5 14 -24 -7 -31 8 -40 71 -42 38 -1 53 3 63 17 11
15 16 17 32 7 10 -7 17 -15 15 -18 -2 -3 5 -11 16 -18 22 -14 24 -9 8 20 -10
19 -9 20 12 15 13 -4 30 -7 37 -7 8 0 10 -8 7 -22 -6 -27 8 -53 24 -44 6 4 11
16 11 28 0 17 5 20 31 16 25 -4 33 -1 37 14 3 12 10 17 22 13 9 -3 23 2 30 10
8 9 21 13 32 9 10 -3 24 -1 31 4 7 5 23 13 37 16 l25 7 -22 -20 c-28 -24 -29
-31 -4 -31 11 0 22 -4 26 -10 9 -15 54 10 48 27 -8 21 17 63 39 63 13 0 18 -7
18 -26z m204 -344 c24 -13 30 -24 33 -60 3 -25 9 -46 14 -48 5 -2 9 -8 9 -13
0 -6 -4 -7 -10 -4 -5 3 -10 -3 -10 -14 0 -14 -13 -27 -42 -41 -24 -12 -59 -31
-78 -43 -18 -11 -52 -24 -75 -27 -26 -3 -40 -10 -40 -20 0 -8 -10 -16 -22 -18
-30 -4 -51 -31 -34 -42 18 -10 7 -26 -37 -54 -37 -23 -49 -35 -95 -88 -13 -15
-26 -26 -29 -23 -2 3 -11 -7 -19 -23 -8 -15 -20 -33 -26 -40 -7 -7 -13 -18
-13 -23 0 -5 -9 -9 -20 -9 -11 0 -23 -7 -26 -15 -8 -19 -38 -36 -75 -41 -75
-10 -99 -15 -168 -34 -24 -6 -67 -14 -95 -16 -28 -3 -67 -10 -86 -16 -19 -6
-36 -10 -38 -9 -1 1 -15 -5 -30 -12 -31 -17 -162 -29 -162 -16 0 5 -8 1 -18
-8 -10 -10 -35 -27 -57 -38 -22 -11 -43 -24 -47 -30 -5 -6 -8 -6 -8 2 0 8 -9
9 -32 2 -18 -6 -38 -11 -45 -13 -7 -1 -21 -10 -32 -20 -10 -10 -28 -17 -38
-15 -10 1 -25 0 -33 -4 -8 -3 -28 -9 -45 -13 -58 -14 -95 -32 -95 -44 0 -5 -8
-10 -18 -10 -10 0 -23 -5 -29 -11 -13 -13 -45 -32 -90 -53 -18 -8 -33 -20 -33
-26 0 -14 -102 -110 -118 -110 -7 0 -10 -4 -7 -10 3 -5 1 -10 -5 -10 -6 0 -10
-6 -9 -12 4 -23 -13 -48 -31 -48 -23 0 -34 28 -18 48 8 10 9 17 3 19 -6 2 -9
21 -7 43 2 22 0 40 -5 40 -5 0 -7 15 -5 34 4 36 -22 85 -45 86 -12 0 -11 17 3
88 3 13 8 20 13 18 5 -3 14 1 21 9 7 8 16 13 20 10 5 -3 17 6 27 20 23 31 46
19 45 -24 0 -17 3 -31 8 -31 8 0 20 35 20 63 0 27 25 47 59 47 16 0 34 6 38
13 13 20 77 62 90 59 7 -2 13 4 13 11 0 16 21 27 51 27 11 0 23 10 29 24 12
32 31 43 41 24 8 -14 14 -14 50 -2 42 15 69 35 69 52 0 6 14 15 30 21 17 5 30
6 30 1 0 -14 73 -5 113 14 21 10 42 27 48 37 7 14 21 19 54 19 42 0 69 14 43
23 -7 2 -1 2 15 0 21 -4 34 3 57 27 22 24 36 31 52 27 11 -3 33 0 47 7 14 7
40 16 57 19 16 3 48 22 69 41 21 20 47 38 57 42 10 3 18 9 18 14 0 6 11 5 26
-1 35 -13 62 -3 66 24 2 17 10 22 34 22 18 0 41 8 51 18 11 9 25 17 32 17 13
0 74 40 79 53 2 4 10 7 18 7 8 0 14 4 14 9 0 5 14 15 32 22 24 10 33 10 36 1
6 -20 29 -14 46 13 15 23 21 25 70 19 35 -4 56 -3 60 5 4 6 17 11 29 11 22 0
57 31 57 49 0 14 69 1 104 -19z m-195 -684 c16 -47 16 -52 -1 -85 -10 -19 -25
-39 -34 -44 -28 -16 -126 -19 -151 -6 -18 10 -26 10 -35 1 -9 -9 -8 -12 5 -12
11 0 20 -11 24 -30 3 -16 10 -30 15 -30 6 0 8 -12 5 -27 -4 -16 -9 -44 -13
-63 -4 -19 -11 -41 -17 -48 -14 -18 -36 3 -30 28 5 18 0 20 -36 20 -30 0 -41
4 -41 16 0 8 -4 12 -10 9 -14 -9 -12 -45 3 -51 8 -3 11 -18 9 -44 -3 -30 -1
-40 11 -40 8 0 27 -6 42 -14 26 -13 29 -13 51 11 13 15 25 24 27 22 24 -33 35
-109 17 -109 -5 0 -12 -11 -16 -25 -4 -15 -16 -28 -30 -31 -13 -3 -24 -11 -24
-17 0 -6 -6 -2 -14 8 -13 18 -14 18 -25 -4 -10 -17 -15 -20 -26 -11 -11 9 -17
7 -27 -9 -7 -12 -21 -21 -31 -21 -26 0 -77 -38 -87 -66 -6 -16 -20 -25 -44
-30 -21 -3 -38 -13 -41 -24 -3 -10 -28 -42 -55 -72 -27 -29 -47 -59 -45 -66 3
-7 1 -10 -4 -7 -5 3 -12 -4 -16 -15 -6 -20 -45 -29 -45 -10 0 6 6 10 14 10 25
0 28 18 7 42 -11 13 -27 32 -35 43 -18 25 -32 14 -17 -13 15 -29 14 -52 -4
-52 -8 0 -15 -9 -15 -20 0 -12 -10 -25 -25 -32 -15 -7 -24 -17 -21 -25 8 -19
-30 -53 -59 -53 -20 0 -25 5 -25 25 0 14 -4 25 -9 25 -13 0 -33 -64 -26 -82 3
-8 -1 -21 -10 -28 -8 -7 -15 -21 -15 -31 0 -11 -7 -19 -17 -19 -13 0 -18 -9
-19 -27 -1 -16 -5 -41 -9 -58 -4 -16 -7 -42 -8 -57 -1 -16 -7 -28 -14 -28 -6
0 -18 -9 -26 -21 l-15 -21 -42 27 -42 26 -17 -20 c-21 -24 -39 -26 -93 -10
-37 10 -38 11 -38 57 0 26 7 58 15 72 14 25 17 32 36 79 9 23 10 23 24 5 13
-19 14 -19 21 1 4 11 15 26 23 32 14 11 14 14 1 23 -8 5 -10 10 -4 10 6 0 17
11 24 25 7 14 16 23 18 20 3 -3 11 3 18 13 7 9 16 17 21 18 25 2 43 19 48 45
4 16 13 29 21 29 9 0 12 5 9 10 -3 6 -1 10 4 10 6 0 12 -15 12 -32 1 -24 3
-27 6 -10 3 14 12 22 24 22 20 0 26 15 10 24 -5 4 -12 0 -14 -6 -4 -9 -6 -7
-6 3 -1 9 6 22 14 29 9 7 14 19 11 27 -3 7 1 13 8 13 8 0 16 -6 19 -12 5 -16
13 -10 21 20 6 16 3 22 -8 22 -13 0 -14 4 -4 25 6 14 15 25 20 25 4 0 8 6 8
14 0 7 7 19 15 26 13 10 15 9 15 -9 0 -11 5 -21 10 -21 6 0 10 9 10 20 0 11 7
23 15 26 9 4 15 19 15 40 0 19 5 34 10 34 6 0 10 7 10 15 0 8 4 15 8 15 5 0
21 17 35 37 15 21 27 35 27 31 0 -4 16 8 35 27 19 19 40 35 47 35 26 1 68 49
68 77 1 26 29 73 45 73 4 0 4 -11 1 -25 -5 -21 -3 -25 15 -25 18 0 20 2 8 16
-10 13 -10 17 0 24 8 4 11 17 7 31 -3 13 -3 18 0 12 9 -20 21 -15 29 10 5 17
8 18 12 6 4 -15 42 -39 62 -39 4 0 20 11 35 25 20 18 26 34 26 65 0 30 5 42
18 47 34 12 82 54 82 73 0 21 20 39 20 18 0 -8 5 -6 11 5 5 9 7 22 4 27 -3 6
-1 10 5 10 6 0 14 8 17 18 8 20 19 32 53 55 24 16 25 16 53 -16 16 -17 37 -54
46 -81z m-6187 -936 c33 -10 36 -13 29 -33 -5 -13 -14 -66 -20 -118 -17 -137
-14 -132 -72 -125 -56 8 -110 26 -93 33 6 2 10 17 8 34 -2 18 1 32 10 35 8 3
12 20 12 47 -1 23 2 50 6 60 6 11 5 17 -2 17 -6 0 -4 7 4 16 21 20 20 23 -6
34 -34 13 76 13 124 0z m4031 -522 c-6 -7 -13 -21 -16 -31 -5 -14 -3 -16 11
-8 10 5 27 8 38 6 10 -2 28 -4 39 -4 12 -1 16 -4 9 -9 -11 -7 -11 -93 1 -112
14 -23 -33 1 -74 37 -22 20 -27 21 -41 8 -12 -10 -19 -12 -27 -4 -12 12 -53
-8 -53 -26 0 -5 -12 -28 -26 -50 -14 -22 -23 -32 -20 -21 5 13 2 17 -9 13 -8
-4 -17 -2 -21 4 -4 6 -11 6 -20 -2 -8 -6 -17 -9 -21 -5 -3 3 -12 -3 -20 -13
-13 -19 -69 -38 -80 -28 -9 10 8 47 20 41 7 -3 4 1 -5 9 -19 15 -6 24 129 92
l42 22 -11 -21 c-10 -19 -10 -20 5 -7 10 7 17 19 17 26 0 19 37 48 51 39 8 -4
10 -3 5 4 -4 7 9 19 31 31 44 23 59 26 46 9z m69 -196 c40 -44 58 -73 58 -98
0 -14 -6 -12 -34 10 -44 33 -47 33 -34 -4 15 -44 5 -60 -37 -60 -20 0 -45 -5
-56 -11 -34 -18 -59 -19 -52 -3 4 10 0 12 -11 8 -23 -9 -20 7 14 78 28 59 70
105 70 76 0 -6 3 -8 7 -5 3 4 13 1 22 -5 13 -10 14 -10 4 2 -17 19 -16 50 0
50 8 0 30 -17 49 -38z"/>
</g>
</svg>
